<?xml version="1.0" encoding="utf-8"?>
<!-- Generator: Adobe Illustrator 25.4.1, SVG Export Plug-In . SVG Version: 6.00 Build 0)  -->
<svg version="1.1" id="Layer_1" xmlns:serif="http://www.serif.com/"
	 xmlns="http://www.w3.org/2000/svg" xmlns:xlink="http://www.w3.org/1999/xlink" x="0px" y="0px" viewBox="0 0 100 125"
	 style="enable-background:new 0 0 100 125;" xml:space="preserve">
<style type="text/css">
	.st0{fill-rule:evenodd;clip-rule:evenodd;}
</style>
<g transform="matrix(0.99888,0,0,1,0.0560078,7.10543e-15)">
	<path class="st0" d="M34.1,6.6C44,1.1,56,1.1,65.9,6.6c0,0,0,0,0,0c8.9,5,15.4,13.5,17.7,23.5c2.3,10,0.3,20.5-5.5,28.9
		c-10.4,15-21.3,30.8-25.9,37.4c-0.5,0.7-1.3,1.2-2.2,1.2c-0.9,0-1.7-0.4-2.2-1.2C43.2,89.7,32.3,73.9,21.9,59
		c-5.8-8.4-7.8-18.9-5.5-28.9S25.2,11.6,34.1,6.6C34.1,6.6,34.1,6.6,34.1,6.6z M50,16c11.9,0,21.6,9.7,21.6,21.6S61.9,59.1,50,59.1
		s-21.6-9.7-21.6-21.6S38.1,16,50,16z"/>
</g>
<g transform="matrix(2.24633,0,0,2.24643,20.7983,15.0777)">
	<ellipse class="st0" cx="13" cy="10" rx="6" ry="6"/>
</g>
</svg>
